# xmcd
#
# Track frame offsets: 
#        150
#        15147
#        29460
#        41877
#        56577
#        69257
#        83712
#        96312
#        110257
#        123937
#        137342
#        150597
#        162760
#        176677
#        190332
#        203057
#        217175
#        231830
#        245840
#        258760
#        271087
#        286495
#        300177
#        313695
#
# Disc length: 4366 seconds
#
# Revision: 1
# Processed by: cddbd v1.5.1PL0 Copyright (c) Steve Scherf et al.
# Submitted via: ExactAudioCopy v0.95a5
#
DISCID=42110c18
DTITLE=Various Artist - Georgia Blues 1928-1933
DYEAR=1992
DGENRE=Blues
TTITLE0=Curley Weaver - Sweet Petunia
TTITLE1=Curley Weaver - No No Blues
TTITLE2=Curley Weaver - No No Blues
TTITLE3=Guy Lumpkin - Decatur Street Drag
TTITLE4=Eddie Mapp - Riding the Blinds
TTITLE5=Curley Weaver - Dirty Deal Blues
TTITLE6=Curley Weaver - It's the Best Stuff Yet
TTITLE7=Slim Barton - I'm Hot Like That
TTITLE8=Slim Barton - Careless Love
TTITLE9=Slim Barton - Wicked Treatin' Blues
TTITLE10=Slim Barton - It's Tight Like That
TTITLE11=Slim Barton - Poor Convict Blues
TTITLE12=Curley Weaver - Ta Ta Blues
TTITLE13=Mapp-Moore-Lumpkin - Where You Been So Long
TTITLE14=Slim Barton - Fourth Avenue Blues
TTITLE15=Curley Weaver and Clarence Moore - Baby Boogie Woogie
TTITLE16=Curley Weaver and Clarence Moore - Wild Cat Kitten
TTITLE17=Fred McMullen - Wait and Listen
TTITLE18=Fred McMullen - Rolling Mama
TTITLE19=Fred McMullen and Ruth Willis - Just Can't Stand It
TTITLE20=Ruth (Mary) Willis - I'm Still Sloppy Drunk
TTITLE21=Ruth (Mary) Willis - Man of My Own
TTITLE22=Fred McMullen and Curley Weaver - Poor Stranger Blues
TTITLE23=Fred McMullen - DeKalb Chain Gang
EXTD=YEAR: 1992
EXTT0=
EXTT1=
EXTT2=
EXTT3=
EXTT4=
EXTT5=
EXTT6=
EXTT7=
EXTT8=
EXTT9=
EXTT10=
EXTT11=
EXTT12=
EXTT13=
EXTT14=
EXTT15=
EXTT16=
EXTT17=
EXTT18=
EXTT19=
EXTT20=
EXTT21=
EXTT22=
EXTT23=
PLAYORDER=
